<svg width="25" height="25" viewBox="0 0 25 25" fill="none" xmlns="http://www.w3.org/2000/svg">
<path d="M18.2001 21.5V19.5C18.2001 18.7044 17.8838 17.9415 17.3212 17.3789C16.829 16.8867 16.1836 16.5829 15.497 16.5146L15.2001 16.5L9.20007 16.5C8.40442 16.5 7.64159 16.8163 7.07898 17.3789C6.51637 17.9415 6.20007 18.7044 6.20007 19.5V21.5C6.20007 22.0523 5.75235 22.5 5.20007 22.5C4.64779 22.5 4.20007 22.0523 4.20007 21.5L4.20007 19.5C4.20007 18.1739 4.72723 16.9025 5.66491 15.9648C6.6026 15.0272 7.87399 14.5 9.20007 14.5L15.2001 14.5L15.4481 14.5059C16.6839 14.5672 17.8562 15.0858 18.7353 15.9648C19.6729 16.9025 20.2001 18.1739 20.2001 19.5V21.5C20.2001 22.0523 19.7524 22.5 19.2001 22.5C18.6478 22.5 18.2001 22.0523 18.2001 21.5Z" fill="#565E6C"/>
<path d="M15.2001 7.5C15.2001 5.84315 13.857 4.5 12.2001 4.5C10.5432 4.5 9.20007 5.84315 9.20007 7.5C9.20007 9.15685 10.5432 10.5 12.2001 10.5C13.857 10.5 15.2001 9.15685 15.2001 7.5ZM17.2001 7.5C17.2001 10.2614 14.9615 12.5 12.2001 12.5C9.43865 12.5 7.20007 10.2614 7.20007 7.5C7.20007 4.73858 9.43865 2.5 12.2001 2.5C14.9615 2.5 17.2001 4.73858 17.2001 7.5Z" fill="#565E6C"/>
</svg>
