<svg width="17" height="21" viewBox="0 0 17 21" fill="none" xmlns="http://www.w3.org/2000/svg">
<path d="M14.6 3.5C14.6 3.23478 14.4946 2.98051 14.307 2.79297C14.1195 2.60543 13.8652 2.5 13.6 2.5L3.59998 2.5C3.33476 2.5 3.08049 2.60543 2.89295 2.79297C2.70541 2.98051 2.59998 3.23478 2.59998 3.5L2.59998 17.7764L8.10388 14.6318L8.22208 14.5742C8.50448 14.4589 8.82708 14.4781 9.09608 14.6318L14.6 17.7764L14.6 3.5ZM16.6 19.5C16.6 19.8565 16.4103 20.1863 16.102 20.3652C15.7937 20.5441 15.4134 20.545 15.1039 20.3682L8.59998 16.6514L2.09607 20.3682C1.78661 20.545 1.40632 20.5441 1.09803 20.3652C0.789706 20.1863 0.599976 19.8565 0.599976 19.5L0.599976 3.5C0.599976 2.70435 0.916276 1.94152 1.47889 1.37891C2.0415 0.8163 2.80433 0.5 3.59998 0.5L13.6 0.5C14.3956 0.5 15.1585 0.8163 15.7211 1.37891C16.2837 1.94152 16.6 2.70435 16.6 3.5L16.6 19.5Z" fill="#565E6C"/>
</svg>
