<svg width="24" height="25" viewBox="0 0 24 25" fill="none" xmlns="http://www.w3.org/2000/svg">
<path d="M15.7255 5.53812C16.2232 5.39616 16.7408 5.6575 16.9287 6.12797L16.9619 6.22562L20.9619 20.2257L20.9843 20.3253C21.0735 20.8241 20.7722 21.3198 20.2744 21.462C19.7768 21.604 19.2591 21.3426 19.0712 20.8721L19.038 20.7745L15.038 6.77445L15.0156 6.67484C14.9264 6.17596 15.2277 5.68035 15.7255 5.53812Z" fill="#565E6C"/>
<path d="M11 20.5L11 6.5C11 5.94772 11.4477 5.5 12 5.5C12.5523 5.5 13 5.94772 13 6.5L13 20.5C13 21.0523 12.5523 21.5 12 21.5C11.4477 21.5 11 21.0523 11 20.5Z" fill="#565E6C"/>
<path d="M7 20.5L7 8.5C7 7.94772 7.44772 7.5 8 7.5C8.55228 7.5 9 7.94772 9 8.5L9 20.5C9 21.0523 8.55228 21.5 8 21.5C7.44772 21.5 7 21.0523 7 20.5Z" fill="#565E6C"/>
<path d="M3 20.5L3 4.5C3 3.94772 3.44772 3.5 4 3.5C4.55228 3.5 5 3.94772 5 4.5L5 20.5C5 21.0523 4.55228 21.5 4 21.5C3.44772 21.5 3 21.0523 3 20.5Z" fill="#565E6C"/>
</svg>
