<svg width="14" height="14" viewBox="0 0 14 14" fill="none" xmlns="http://www.w3.org/2000/svg">
<path d="M12.36 2.31005C12.36 2.13235 12.2894 1.96199 12.1637 1.83634C12.0381 1.71069 11.8677 1.64005 11.69 1.64005L2.30999 1.64005C2.13229 1.64005 1.96193 1.71069 1.83628 1.83634C1.71063 1.96199 1.63999 2.13235 1.63999 2.31005L1.63999 11.4126L3.17628 9.87636L3.22535 9.83187C3.34458 9.73412 3.49449 9.68005 3.64999 9.68005L11.69 9.68005C11.8677 9.68005 12.0381 9.60943 12.1637 9.48374C12.2894 9.35811 12.36 9.18773 12.36 9.01005L12.36 2.31005ZM13.7 9.01005C13.7 9.54317 13.4881 10.0542 13.1111 10.4312C12.7342 10.8081 12.2231 11.02 11.69 11.02L3.92741 11.02L1.4437 13.5037C1.25208 13.6954 0.963864 13.7527 0.713505 13.649C0.463193 13.5453 0.299988 13.301 0.299988 13.03L0.299988 2.31005C0.299988 1.77696 0.511909 1.26587 0.888857 0.888919C1.26581 0.51197 1.7769 0.300049 2.30999 0.300049L11.69 0.300049C12.223 0.300049 12.7342 0.51197 13.1111 0.888919C13.4881 1.26587 13.7 1.77696 13.7 2.31005L13.7 9.01005Z" fill="#242524"/>
<path d="M7.67999 3.66003C8.05003 3.66003 8.34999 3.96001 8.34999 4.33003C8.34999 4.70006 8.05003 5.00003 7.67999 5.00003L3.65999 5.00003C3.28996 5.00003 2.98999 4.70006 2.98999 4.33003C2.98999 3.96001 3.28996 3.66003 3.65999 3.66003L7.67999 3.66003Z" fill="#242524"/>
<path d="M10.35 6.33008C10.72 6.33008 11.02 6.63004 11.02 7.00008C11.02 7.37012 10.72 7.67008 10.35 7.67008L3.64998 7.67008C3.27995 7.67008 2.97998 7.37012 2.97998 7.00008C2.97998 6.63004 3.27995 6.33008 3.64998 6.33008L10.35 6.33008Z" fill="#242524"/>
</svg>
