<svg width="14" height="15" viewBox="0 0 14 15" fill="none" xmlns="http://www.w3.org/2000/svg">
<path d="M8.34001 14.0151L8.34001 8.65506L5.66001 8.65506L5.66001 14.0151C5.66001 14.3851 5.36003 14.6851 4.99001 14.6851C4.61998 14.6851 4.32001 14.3851 4.32001 14.0151L4.32001 8.65506C4.32001 8.2997 4.46129 7.95893 4.71259 7.70762C4.96388 7.45637 5.30462 7.31506 5.66001 7.31506L8.34001 7.31506C8.69538 7.31506 9.03614 7.45637 9.28745 7.70762C9.5387 7.95893 9.68001 8.2997 9.68001 8.65506L9.68001 14.0151C9.68001 14.3851 9.38005 14.6851 9.01001 14.6851C8.63997 14.6851 8.34001 14.3851 8.34001 14.0151Z" fill="#242524"/>
<path d="M12.36 6.66472L12.356 6.59209C12.3482 6.51976 12.3286 6.44901 12.2978 6.38272C12.2568 6.29432 12.1969 6.21597 12.1225 6.15306L12.1192 6.14979L7.43247 2.13306C7.32661 2.04359 7.19603 1.99009 7.05888 1.978L6.99999 1.97538C6.84167 1.97538 6.68844 2.03151 6.5675 2.13372L6.56683 2.13306L1.88077 6.14979L1.8775 6.15306C1.80308 6.21597 1.74316 6.29432 1.70214 6.38272C1.66116 6.47107 1.63999 6.56733 1.63999 6.66472L1.63999 12.6947C1.63999 12.8724 1.71063 13.0434 1.83628 13.1691C1.96191 13.2947 2.13238 13.3647 2.30999 13.3647L11.69 13.3647C11.8676 13.3647 12.0381 13.2947 12.1637 13.1691C12.2894 13.0434 12.36 12.8724 12.36 12.6947L12.36 6.66472ZM13.7 12.6947C13.7 13.2278 13.4881 13.7395 13.1111 14.1165C12.7342 14.4934 12.223 14.7047 11.69 14.7047L2.30999 14.7047C1.77698 14.7047 1.26579 14.4934 0.888857 14.1165C0.511909 13.7395 0.299988 13.2278 0.299988 12.6947L0.299988 6.66472C0.299988 6.37253 0.363497 6.08377 0.486462 5.81872C0.609508 5.55353 0.789255 5.31846 1.01252 5.12974L5.69925 1.11301L5.70253 1.11039L5.84317 1.00178C6.18064 0.764244 6.58445 0.635376 6.99999 0.635376L7.17727 0.643228C7.52962 0.674424 7.8675 0.798193 8.15681 1.00178L8.29744 1.11039L8.30072 1.11301L12.9874 5.12974L13.0692 5.20237C13.2548 5.37744 13.4059 5.58666 13.5135 5.81872C13.6365 6.08377 13.7 6.37253 13.7 6.66472L13.7 12.6947Z" fill="#242524"/>
</svg>
