<svg width="232" height="207" viewBox="0 0 232 207" fill="none" xmlns="http://www.w3.org/2000/svg">
<path d="M174.428 142.24C179.916 130.579 182.109 117.503 180.594 104.554M105.975 181.761C98.8585 181.164 91.872 179.474 85.2777 176.761L48.8909 181.761L51.6587 147.322C32.5108 114.157 43.874 71.7488 77.0392 52.6009C103.182 37.5073 135.068 41.372 156.777 59.9291M156.777 59.9291C162.609 64.9139 167.706 70.9589 171.76 77.9813C172.377 79.049 172.962 80.1262 173.515 81.2119M156.777 59.9291L199.244 59.9291M173.515 81.2119L215.034 81.2119M173.515 81.2119C177.336 88.7068 179.663 96.6065 180.594 104.554M180.594 104.554L209.542 104.554" stroke="#007AFF" stroke-width="13.7308" stroke-linecap="round"/>
<path d="M140.888 89.4504L109.993 124.464L90.0837 105.927" stroke="#007AFF" stroke-width="13.7308" stroke-linecap="round"/>
</svg>
