<svg width="60" height="60" viewBox="0 0 60 60" fill="none" xmlns="http://www.w3.org/2000/svg">
<circle cx="30" cy="30" r="30" fill="white"/>
<path d="M43 43V40.2222C43 38.7488 42.3415 37.3357 41.1694 36.2939C39.9973 35.252 38.4076 34.6667 36.75 34.6667H24.25C22.5924 34.6667 21.0027 35.252 19.8306 36.2939C18.6585 37.3357 18 38.7488 18 40.2222V43M36.75 23.5556C36.75 26.6238 33.9518 29.1111 30.5 29.1111C27.0482 29.1111 24.25 26.6238 24.25 23.5556C24.25 20.4873 27.0482 18 30.5 18C33.9518 18 36.75 20.4873 36.75 23.5556Z" stroke="#007AFF" stroke-width="4" stroke-linecap="round" stroke-linejoin="round"/>
</svg>
