<svg width="14" height="14" viewBox="0 0 14 14" fill="none" xmlns="http://www.w3.org/2000/svg">
<path d="M9.62239 9.62251C9.86768 9.37722 10.2556 9.36208 10.5188 9.57675L10.5698 9.62251L13.4775 12.5302L13.524 12.5812C13.7384 12.8444 13.7227 13.2324 13.4775 13.4776C13.2323 13.7228 12.8443 13.7385 12.5811 13.5241L12.5301 13.4776L9.62239 10.57L9.57663 10.5189C9.36196 10.2557 9.3771 9.8678 9.62239 9.62251Z" fill="#242524"/>
<path d="M11.02 6.33005C11.02 3.73984 8.92021 1.64005 6.32999 1.64005C3.73977 1.64005 1.63999 3.73984 1.63999 6.33005C1.63999 8.92027 3.73977 11.02 6.32999 11.02C8.92021 11.02 11.02 8.92027 11.02 6.33005ZM12.36 6.33005C12.36 9.66035 9.66029 12.36 6.32999 12.36C2.99971 12.36 0.299988 9.66035 0.299988 6.33005C0.299988 2.99977 2.99971 0.300049 6.32999 0.300049C9.66029 0.300049 12.36 2.99977 12.36 6.33005Z" fill="#242524"/>
</svg>
